<?xml version="1.0" standalone="no"?>
<!DOCTYPE svg PUBLIC "-//W3C//DTD SVG 20010904//EN"
 "http://www.w3.org/TR/2001/REC-SVG-20010904/DTD/svg10.dtd">
<svg version="1.0" xmlns="https://www.w3.org/2000/svg"
 width="480.000000pt" height="351.000000pt" viewBox="0 0 480.000000 351.000000"
 preserveAspectRatio="xMidYMid meet">

<g transform="translate(0.000000,351.000000) scale(0.100000,-0.100000)"
fill="#000000" stroke="none">
<path d="M1724 3336 c-110 -21 -182 -45 -274 -89 -323 -157 -540 -483 -557
-835 -6 -111 -6 -112 -32 -118 -152 -34 -215 -60 -318 -127 -171 -111 -295
-283 -355 -494 -30 -103 -32 -312 -4 -418 22 -83 81 -214 127 -282 135 -196
372 -338 600 -359 l71 -7 40 -56 c190 -262 502 -406 842 -388 276 15 539 147
691 346 l38 50 48 -42 c72 -62 164 -114 254 -144 72 -25 95 -27 220 -27 127 0
147 2 219 27 43 15 100 40 125 54 121 69 242 192 295 301 16 35 25 42 41 38
344 -95 701 93 812 428 23 70 27 98 27 201 0 103 -4 131 -27 201 -87 263 -342
454 -605 454 l-74 0 6 28 c3 15 9 72 13 128 13 219 -71 423 -237 577 -79 73
-215 147 -320 174 -89 23 -264 23 -350 0 -69 -19 -193 -74 -239 -106 l-28 -20
-43 67 c-134 203 -355 360 -598 423 -100 26 -309 34 -408 15z m303 -27 c97
-13 237 -59 323 -105 150 -82 293 -218 370 -352 19 -34 39 -62 43 -62 5 0 28
14 53 31 119 81 252 122 399 122 271 0 507 -147 629 -390 78 -155 95 -325 50
-509 -5 -21 -2 -22 108 -26 126 -6 202 -28 304 -89 218 -131 340 -402 290
-648 -48 -236 -207 -412 -436 -483 -111 -34 -284 -31 -384 8 -9 3 -29 -23 -56
-73 -65 -119 -178 -227 -300 -287 -122 -60 -214 -80 -340 -73 -165 9 -301 65
-432 179 l-60 52 -22 -29 c-126 -173 -311 -300 -521 -356 -119 -32 -345 -32
-470 0 -221 57 -404 179 -529 354 l-46 64 -74 6 c-95 8 -243 56 -324 104 -190
113 -332 303 -388 518 -27 104 -25 295 5 400 83 299 311 521 604 587 l97 22 0
88 c0 147 44 315 115 445 197 358 590 557 992 502z"/>
</g>
</svg>
