<?xml version="1.0" standalone="no"?>
<!DOCTYPE svg PUBLIC "-//W3C//DTD SVG 20010904//EN"
 "http://www.w3.org/TR/2001/REC-SVG-20010904/DTD/svg10.dtd">
<svg version="1.0" xmlns="https://www.w3.org/2000/svg"
 width="500.000000pt" height="500.000000pt" viewBox="0 0 500.000000 500.000000"
 preserveAspectRatio="xMidYMid meet">

<g transform="translate(0.000000,500.000000) scale(0.100000,-0.100000)"
fill="#000000" stroke="none">
<path d="M1930 3830 c0 -5 7 -10 15 -10 8 0 15 5 15 10 0 6 -7 10 -15 10 -8 0
-15 -4 -15 -10z"/>
<path d="M1864 3795 c3 -9 9 -34 12 -56 4 -21 14 -44 22 -51 13 -10 14 -10 8
0 -4 7 1 24 12 40 28 40 16 76 -27 80 -28 3 -33 1 -27 -13z"/>
<path d="M1281 3764 c-15 -33 -10 -40 12 -16 9 10 13 23 8 30 -5 9 -11 5 -20
-14z"/>
<path d="M2690 3490 c0 -5 5 -10 11 -10 5 0 7 5 4 10 -3 6 -8 10 -11 10 -2 0
-4 -4 -4 -10z"/>
<path d="M1280 3389 c0 -5 5 -7 10 -4 6 3 10 8 10 11 0 2 -4 4 -10 4 -5 0 -10
-5 -10 -11z"/>
<path d="M3790 3331 c0 -11 -7 -26 -15 -35 -19 -18 -19 -26 -1 -26 8 0 17 11
20 24 3 13 9 31 12 40 3 9 1 16 -5 16 -6 0 -11 -9 -11 -19z"/>
<path d="M1088 3333 c6 -2 18 -2 25 0 6 3 1 5 -13 5 -14 0 -19 -2 -12 -5z"/>
<path d="M1017 3313 c-14 -13 -6 -53 12 -63 21 -11 40 3 20 15 -6 4 -8 18 -5
31 6 23 -11 34 -27 17z"/>
<path d="M3480 3255 c0 -9 6 -12 15 -9 8 4 15 10 15 15 0 5 -7 9 -15 9 -8 0
-15 -7 -15 -15z"/>
<path d="M2857 3223 c-17 -16 -5 -33 22 -33 39 0 47 14 15 29 -29 13 -29 13
-37 4z"/>
<path d="M3460 3185 c0 -8 5 -15 10 -15 6 0 10 7 10 15 0 8 -4 15 -10 15 -5 0
-10 -7 -10 -15z"/>
<path d="M677 3076 c-4 -10 -1 -13 9 -9 15 6 19 23 5 23 -5 0 -11 -7 -14 -14z"/>
<path d="M646 3018 c-9 -12 -14 -23 -12 -25 8 -8 56 21 56 34 0 21 -27 15 -44
-9z"/>
<path d="M570 2930 c0 -5 4 -10 9 -10 6 0 13 5 16 10 3 6 -1 10 -9 10 -9 0
-16 -4 -16 -10z"/>
<path d="M502 2901 c-7 -4 -15 -25 -18 -46 -4 -33 -3 -36 11 -25 9 7 13 15 11
18 -9 9 15 42 30 42 8 0 12 5 9 10 -7 12 -25 13 -43 1z"/>
<path d="M535 2755 c1 -25 7 -50 14 -57 11 -11 12 -10 6 1 -5 9 -2 19 10 27
15 11 16 16 4 43 -20 44 -34 38 -34 -14z"/>
<path d="M165 2659 c-11 -17 1 -21 15 -4 8 9 8 15 2 15 -6 0 -14 -5 -17 -11z"/>
<path d="M146 2600 c3 -19 14 -54 24 -77 15 -33 24 -43 42 -43 13 0 19 4 13 8
-16 11 -36 52 -26 52 5 0 11 9 14 19 3 14 -2 20 -22 24 -15 3 -33 16 -39 29
-11 21 -11 20 -6 -12z"/>
<path d="M280 2461 c0 -6 6 -11 14 -11 17 0 56 -47 56 -67 0 -8 -11 -29 -25
-47 -28 -37 -32 -80 -10 -122 8 -16 15 -46 15 -66 0 -30 7 -45 38 -74 20 -19
51 -42 69 -49 17 -8 35 -20 38 -25 4 -6 17 -15 28 -21 12 -5 29 -13 37 -18 37
-22 70 -30 144 -35 43 -2 83 -9 89 -15 6 -6 22 -11 37 -11 50 0 96 -20 147
-65 50 -44 53 -45 121 -45 49 0 73 -4 82 -15 7 -8 27 -17 44 -21 18 -3 55 -23
82 -45 27 -21 60 -44 74 -51 14 -7 41 -24 61 -40 41 -31 111 -58 155 -58 16 0
39 -7 50 -15 13 -10 46 -14 114 -15 91 0 95 1 125 30 29 29 36 30 140 36 85 5
116 10 137 25 15 10 31 19 35 19 5 0 33 25 63 55 75 76 89 75 191 -20 l82 -75
82 0 c83 0 83 0 137 -42 l53 -43 173 -3 c141 -3 180 -1 212 12 22 9 50 16 61
16 12 0 37 14 56 30 44 39 95 41 134 4 17 -17 42 -27 70 -31 24 -2 53 -8 64
-13 11 -5 43 -11 70 -14 28 -2 112 -10 188 -17 l137 -13 29 28 c16 16 35 40
41 55 6 15 44 55 85 89 65 55 79 62 117 62 34 0 48 6 76 33 29 28 42 33 99 37
89 7 92 24 6 43 -144 32 -131 32 -135 -5 -2 -27 -8 -34 -30 -36 -15 -2 -41 4
-59 13 -28 15 -33 15 -47 1 -9 -8 -25 -37 -36 -63 -40 -91 -32 -87 -119 -64
-91 25 -104 26 -123 6 -9 -9 -31 -14 -59 -13 -42 2 -85 -20 -85 -44 0 -5 -11
-26 -25 -48 -20 -32 -31 -40 -56 -40 -37 0 -85 24 -98 49 -11 19 -51 29 -146
36 -28 2 -62 8 -76 13 -18 7 -41 6 -80 -5 -32 -8 -72 -12 -99 -8 -70 9 -130 5
-161 -11 -15 -7 -37 -14 -48 -14 -11 0 -22 -4 -25 -9 -14 -22 -179 29 -255 80
-24 16 -48 29 -53 29 -5 0 -21 9 -37 21 -16 12 -46 21 -72 23 -47 3 -148 60
-149 84 0 23 -26 12 -65 -29 -22 -22 -68 -54 -102 -71 -55 -26 -73 -29 -140
-27 -74 2 -106 -5 -146 -33 -16 -11 -21 -9 -40 12 -12 14 -44 38 -70 53 -45
27 -50 28 -67 12 -10 -9 -24 -15 -32 -14 -26 3 -38 -1 -38 -15 0 -48 -86 -12
-131 54 l-33 49 -73 7 c-41 3 -87 4 -104 0 -35 -7 -100 18 -136 53 -12 11 -29
21 -38 21 -8 0 -32 9 -52 20 -21 11 -48 20 -61 20 -13 0 -35 6 -50 14 -15 7
-57 16 -93 18 -45 4 -86 15 -131 37 -78 37 -80 37 -103 11 -24 -27 -48 -27
-40 1 5 14 1 25 -12 34 -17 13 -17 14 0 20 9 4 26 5 37 2 22 -6 37 8 20 18
-13 8 -13 52 0 60 22 14 8 26 -27 23 -37 -3 -38 -4 -38 -43 0 -83 -21 -99 -93
-74 -27 9 -31 15 -26 35 4 16 1 26 -9 29 -9 4 -14 20 -14 46 0 35 -6 45 -46
81 l-46 40 21 29 c12 15 34 33 50 38 28 10 28 11 15 43 -11 28 -21 34 -64 44
-28 6 -56 14 -62 18 -6 4 -11 2 -11 -3z"/>
<path d="M4515 2370 c3 -5 13 -10 21 -10 8 0 14 5 14 10 0 6 -9 10 -21 10 -11
0 -17 -4 -14 -10z"/>
<path d="M4534 2012 c-18 -11 -26 -50 -15 -69 9 -16 10 -15 11 7 0 14 7 36 16
48 15 22 9 29 -12 14z"/>
<path d="M4495 1860 c-3 -5 -1 -10 4 -10 6 0 11 5 11 10 0 6 -2 10 -4 10 -3 0
-8 -4 -11 -10z"/>
</g>
</svg>
